HIERARCHY
ROOT Hips
{
	OFFSET 0.000000 0.000000 0.000000
	CHANNELS 6 Xposition Yposition Zposition Zrotation Yrotation Xrotation 
	JOINT LHipJoint
	{
		OFFSET 0.000000 0.000000 0.000000
		CHANNELS 3 Zrotation Yrotation Xrotation
		JOINT LeftUpLeg
		{
			OFFSET 1.363060 -1.794630 0.839290
			CHANNELS 3 Zrotation Yrotation Xrotation
			JOINT LeftLeg
			{
				OFFSET 2.448110 -6.726130 0.000000
				CHANNELS 3 Zrotation Yrotation Xrotation
				JOINT LeftFoot
				{
					OFFSET 2.562200 -7.039590 0.000000
					CHANNELS 3 Zrotation Yrotation Xrotation
					JOINT LeftToeBase
					{
						OFFSET 0.157640 -0.433110 2.322550
						CHANNELS 3 Zrotation Yrotation Xrotation
						End Site
						{
							OFFSET 0.000000 0.000000 0.000000
						}
					}
				}
			}
		}
	}
	JOINT RHipJoint
	{
		OFFSET 0.000000 0.000000 0.000000
		CHANNELS 3 Zrotation Yrotation Xrotation
		JOINT RightUpLeg
		{
			OFFSET -1.305520 -1.794630 0.839290
			CHANNELS 3 Zrotation Yrotation Xrotation
			JOINT RightLeg
			{
				OFFSET -2.542530 -6.985550 0.000000
				CHANNELS 3 Zrotation Yrotation Xrotation
				JOINT RightFoot
				{
					OFFSET -2.568260 -7.056230 0.000000
					CHANNELS 3 Zrotation Yrotation Xrotation
					JOINT RightToeBase
					{
						OFFSET -0.164730 -0.452590 2.363150
						CHANNELS 3 Zrotation Yrotation Xrotation
						End Site
						{
							OFFSET 0.000000 0.000000 0.000000
						}
					}
				}
			}
		}
	}
	JOINT LowerBack
	{
		OFFSET 0.000000 0.000000 0.000000
		CHANNELS 3 Zrotation Yrotation Xrotation
		JOINT Spine
		{
			OFFSET 0.028270 2.035590 -0.193380
			CHANNELS 3 Zrotation Yrotation Xrotation
			JOINT Spine1
			{
				OFFSET 0.056720 2.048850 -0.042750
				CHANNELS 3 Zrotation Yrotation Xrotation
				JOINT Neck
				{
					OFFSET 0.000000 0.000000 0.000000
					CHANNELS 3 Zrotation Yrotation Xrotation
					JOINT Neck1
					{
						OFFSET -0.054170 1.746240 0.172020
						CHANNELS 3 Zrotation Yrotation Xrotation
						JOINT Head
						{
							OFFSET 0.104070 1.761360 -0.123970
							CHANNELS 3 Zrotation Yrotation Xrotation
							End Site
							{
								OFFSET 0.000000 0.000000 0.000000
							}
						}
					}
				}
				JOINT LeftShoulder
				{
					OFFSET 0.000000 0.000000 0.000000
					CHANNELS 3 Zrotation Yrotation Xrotation
					JOINT LeftArm
					{
						OFFSET 3.362410 1.200890 -0.311210
						CHANNELS 3 Zrotation Yrotation Xrotation
						JOINT LeftForeArm
						{
							OFFSET 4.983000 -0.000000 -0.000000
							CHANNELS 3 Zrotation Yrotation Xrotation
							JOINT LeftHand
							{
								OFFSET 3.483560 -0.000000 -0.000000
								CHANNELS 3 Zrotation Yrotation Xrotation
								JOINT LeftFingerBase
								{
									OFFSET 0.000000 0.000000 0.000000
									CHANNELS 3 Zrotation Yrotation Xrotation
									JOINT LeftHandIndex1
									{
										OFFSET 0.715260 -0.000000 -0.000000
										CHANNELS 3 Zrotation Yrotation Xrotation
										End Site
										{
											OFFSET 0.000000 0.000000 0.000000
										}
									}
								}
								JOINT LThumb
								{
									OFFSET 0.000000 0.000000 0.000000
									CHANNELS 3 Zrotation Yrotation Xrotation
									End Site
									{
										OFFSET 0.000000 0.000000 0.000000
									}
								}
							}
						}
					}
				}
				JOINT RightShoulder
				{
					OFFSET 0.000000 0.000000 0.000000
					CHANNELS 3 Zrotation Yrotation Xrotation
					JOINT RightArm
					{
						OFFSET -3.136600 1.374050 -0.404650
						CHANNELS 3 Zrotation Yrotation Xrotation
						JOINT RightForeArm
						{
							OFFSET -5.241900 -0.000000 -0.000000
							CHANNELS 3 Zrotation Yrotation Xrotation
							JOINT RightHand
							{
								OFFSET -3.444170 -0.000000 -0.000000
								CHANNELS 3 Zrotation Yrotation Xrotation
								JOINT RightFingerBase
								{
									OFFSET 0.000000 0.000000 0.000000
									CHANNELS 3 Zrotation Yrotation Xrotation
									JOINT RightHandIndex1
									{
										OFFSET -0.622530 -0.000000 -0.000000
										CHANNELS 3 Zrotation Yrotation Xrotation
										End Site
										{
											OFFSET 0.000000 0.000000 0.000000
										}
									}
								}
								JOINT RThumb
								{
									OFFSET 0.000000 0.000000 0.000000
									CHANNELS 3 Zrotation Yrotation Xrotation
									End Site
									{
										OFFSET 0.000000 0.000000 0.000000
									}
								}
							}
						}
					}
				}
			}
		}
	}
}
MOTION
Frames: 11
Frame Time: 0.008333
7.926115 16.525296 -4.659008 126.571686 -74.839805 -98.203092 -4.070720 -2.693355 -0.351748 13.506166 -10.234035 -21.616608 4.041643 13.062587 33.886578 7.009534 -1.231934 56.745897 0.022600 -0.970000 -2.666300 -0.785501 5.300200 -7.184384 5.234782 -8.964448 -64.183572 -16.194553 -20.424559 73.271087 0.481534 -4.752578 -3.889648 -1.741100 8.304700 -23.643400 4.520995 -5.514792 51.786309 -0.045372 -5.618031 -2.778537 -0.737415 -2.640443 -11.864794 -11.949251 -12.091086 -1.024710 12.027334 -17.545194 -12.952350 7.795000 -7.651700 -5.139000 3.581390 -5.791772 1.805785 -88.110991 0.107135 25.054772 107.287006 -58.126856 -84.452767 -1.624653 0.720133 18.023737 41.222801 -16.623783 -14.784400 -7.125000 0.000000 0.000000 9.787800 8.255600 -8.407900 -4.069521 7.297110 1.055347 64.503114 8.941029 10.202658 -33.301461 37.929823 -21.807894 3.275388 1.937896 -9.354054 -27.201703 -2.459861 2.290600 7.125000 0.000000 0.000000 -3.417300 -34.445100 -0.886600 
7.707122 16.645045 -5.040575 128.246277 -74.134104 -99.905921 -4.376421 -3.219896 -0.705672 12.101580 -8.794458 -22.983207 5.167136 14.051366 37.119880 6.194877 -0.013968 54.279643 0.007000 -0.541500 -1.488000 -0.424469 5.381701 -6.943971 6.010629 -8.865040 -63.255707 -15.903586 -20.385221 72.577813 0.297191 -4.386054 -3.557828 -1.711900 8.238200 -23.440000 4.201374 -5.324988 50.960283 -0.077061 -5.539366 -2.857787 -0.880820 -2.630863 -12.066396 -11.765543 -12.078594 -1.164170 12.215655 -17.547273 -13.315264 7.857800 -7.656900 -5.238300 3.627683 -5.784993 1.794236 -87.734027 0.363731 24.896690 107.162586 -58.155921 -84.409902 -1.628616 0.694370 18.016393 41.286478 -16.492689 -14.680000 -7.125000 0.000000 0.000000 9.857600 8.441500 -8.432900 -4.311096 7.263930 0.996700 65.286656 8.313052 10.352156 -35.712080 39.365160 -24.059757 3.240647 2.008313 -9.565428 -27.828197 -2.419567 2.365800 7.125000 0.000000 0.000000 -3.923500 -34.505900 -1.012600 
7.486656 16.764795 -5.425087 129.698743 -73.434044 -101.407013 -4.627460 -3.761385 -1.069175 10.693062 -7.547370 -24.448434 6.353818 14.983571 40.404381 5.302891 1.331177 51.545045 0.001200 -0.226200 -0.621600 -0.074910 5.459920 -6.696851 6.763399 -8.833955 -62.243458 -15.579179 -20.318902 71.775431 0.066893 -3.919218 -3.031898 -1.687800 8.183000 -23.271400 3.854592 -5.116520 50.128997 -0.110445 -5.465540 -2.935855 -1.034736 -2.625980 -12.260249 -11.593334 -12.074879 -1.299519 12.399126 -17.552227 -13.639586 7.921600 -7.663700 -5.310300 3.668059 -5.775012 1.777832 -87.338495 0.692163 24.563129 106.618104 -58.265585 -84.083096 -1.657209 0.634627 17.581967 41.245202 -16.163378 -14.337600 -7.125000 0.000000 0.000000 9.916100 8.944500 -8.383700 -4.567806 7.225503 0.937650 66.233050 7.620415 10.553489 -38.400849 40.862287 -26.625051 3.191133 2.099201 -9.906335 -28.396488 -2.395881 2.456800 7.125000 0.000000 0.000000 -4.377600 -34.603100 -1.120000 
7.264378 16.883864 -5.812658 130.947175 -72.782447 -102.688652 -4.813906 -4.323984 -1.444553 9.328215 -6.523077 -26.022272 7.511196 15.830434 43.676787 4.405850 2.480529 48.615736 0.000100 -0.048400 -0.132900 0.264287 5.538927 -6.441721 7.534950 -8.870777 -61.189638 -15.216090 -20.221595 70.861946 -0.201239 -3.373940 -2.339509 -1.662000 8.123400 -23.089700 3.520624 -4.903176 49.238703 -0.141987 -5.390588 -3.013118 -1.193010 -2.624178 -12.436441 -11.451095 -12.081010 -1.430237 12.582429 -17.561908 -13.923267 7.994500 -7.669700 -5.353500 3.704620 -5.760997 1.756433 -86.962240 1.129036 24.093668 105.677700 -58.441603 -83.481628 -1.706691 0.543233 16.724739 41.075979 -15.664753 -13.775400 -7.125000 0.000000 0.000000 9.939800 9.728300 -8.245700 -4.835227 7.180485 0.880346 67.320295 6.869960 10.795611 -41.342120 42.391904 -29.492024 3.126336 2.195925 -10.213754 -28.866897 -2.366214 2.543400 7.125000 0.000000 0.000000 -4.740500 -34.704500 -1.201600 
7.039607 17.001461 -6.203401 132.045160 -72.207829 -103.792642 -4.941296 -4.899573 -1.828496 8.045850 -5.744650 -27.690304 8.565655 16.578735 46.866010 3.599763 3.188271 45.623992 0.000100 0.050900 0.139800 0.600867 5.621206 -6.176253 8.363903 -8.985140 -60.116731 -14.808706 -20.089603 69.832799 -0.476483 -2.816594 -1.509888 -1.648300 8.091400 -22.992200 3.219287 -4.689665 48.271286 -0.169756 -5.304702 -3.089629 -1.352817 -2.621147 -12.590978 -11.337359 -12.097369 -1.549318 12.763698 -17.578953 -14.167519 8.076300 -7.675100 -5.373400 3.739675 -5.741775 1.729918 -86.616106 1.708310 23.539583 104.398064 -58.659044 -82.639887 -1.770176 0.424878 15.492333 40.775919 -15.057246 -13.053200 -7.125000 0.000000 0.000000 9.909400 10.705900 -8.020100 -5.108485 7.128253 0.826677 68.535079 6.067233 11.071976 -44.510169 43.934015 -32.641283 3.052863 2.284791 -10.440999 -29.248116 -2.258372 2.573000 7.125000 0.000000 0.000000 -5.018400 -34.712100 -1.271600 
6.811438 17.116339 -6.597656 133.047322 -71.725673 -104.766234 -5.018303 -5.475177 -2.221878 6.862692 -5.184739 -29.448696 9.481039 17.231524 49.901160 2.963275 3.363371 42.711549 0.000100 0.065000 0.178600 0.942427 5.707198 -5.897156 9.274744 -9.183857 -59.044047 -14.352343 -19.920083 68.683401 -0.766536 -2.237149 -0.561187 -1.635100 8.060700 -22.898600 2.956826 -4.475089 47.215017 -0.192269 -5.197420 -3.165153 -1.507012 -2.611457 -12.715927 -11.249497 -12.124489 -1.657696 12.936906 -17.605781 -14.370875 8.162800 -7.681100 -5.373200 3.777057 -5.716131 1.698232 -86.320881 2.452715 22.953213 102.866976 -58.887944 -81.613490 -1.838357 0.292831 13.998744 40.365404 -14.487421 -12.321200 -7.125000 0.000000 0.000000 9.802000 11.664500 -7.734700 -5.383112 7.067842 0.778451 69.867132 5.230472 11.346451 -47.852027 45.464607 -36.018370 2.978777 2.350947 -10.444781 -29.533505 -2.036716 2.514900 7.125000 0.000000 0.000000 -5.202900 -34.573400 -1.336200 
6.579190 17.228158 -6.996330 133.983026 -71.344714 -105.638451 -5.059414 -6.036481 -2.623766 5.791623 -4.830934 -31.279177 10.251679 17.801051 52.717964 2.524108 3.060127 39.941869 0.000300 -0.109400 -0.300700 1.299736 5.797589 -5.600288 10.274600 -9.469243 -57.972308 -13.843244 -19.710815 67.409269 -1.061633 -1.659009 0.495860 -1.622200 8.030400 -22.806400 2.732017 -4.263398 46.067569 -0.207551 -5.069875 -3.239776 -1.646686 -2.594274 -12.804840 -11.173555 -12.158004 -1.756160 13.093616 -17.638438 -14.530935 8.246100 -7.687500 -5.358600 3.819752 -5.681522 1.661849 -86.072550 3.390379 22.381883 101.225303 -59.101350 -80.495399 -1.903394 0.156867 12.370872 39.896501 -13.983305 -11.636700 -7.125000 0.000000 0.000000 9.640300 12.541200 -7.425300 -5.653930 6.996799 0.737243 71.288960 4.365521 11.627833 -51.317524 46.973455 -39.558962 2.912897 2.386314 -10.187242 -29.723382 -1.667758 2.341200 7.125000 0.000000 0.000000 -5.295900 -34.238400 -1.403500 
6.341730 17.336011 -7.400328 134.896849 -71.042617 -106.471474 -5.082814 -6.571822 -3.027580 4.820428 -4.653126 -33.153483 10.881485 18.298559 55.266759 2.282531 2.360449 37.344759 0.006200 -0.506700 -1.392300 1.682928 5.891091 -5.284374 11.336727 -9.837371 -56.883931 -13.279827 -19.461108 66.007550 -1.382062 -1.045614 1.667476 -1.593000 7.961200 -22.596300 2.512988 -4.044754 44.842430 -0.217164 -4.922993 -3.311782 -1.766474 -2.567104 -12.845857 -11.098026 -12.197109 -1.855482 13.231030 -17.675774 -14.642543 8.320800 -7.695400 -5.328800 3.870136 -5.635154 1.620954 -85.896123 4.511745 21.833291 99.543257 -59.288082 -79.332752 -1.958812 0.035957 10.825773 39.378836 -13.692283 -11.136400 -7.125000 0.000000 0.000000 9.399100 13.129700 -7.116900 -5.920165 6.914684 0.705022 72.796451 3.495992 11.908220 -54.848002 48.449004 -43.174959 2.864090 2.384586 -9.649399 -29.827959 -1.145831 2.044200 7.125000 0.000000 0.000000 -5.309600 -33.690500 -1.477900 
6.098380 17.439673 -7.811011 135.860371 -70.789236 -107.368214 -5.106960 -7.067645 -3.421209 3.938460 -4.616808 -35.017298 11.374938 18.730963 57.501594 2.227192 1.341642 34.945431 0.027600 -1.071800 -2.946300 2.104519 5.986193 -4.946235 12.430831 -10.288840 -55.740769 -12.659461 -19.169583 64.473449 -1.740719 -0.375114 2.966727 -1.542800 7.840700 -22.231400 2.259773 -3.801753 43.578004 -0.223742 -4.751510 -3.379269 -1.861562 -2.524369 -12.836175 -11.014459 -12.243177 -1.958439 13.347611 -17.719588 -14.702357 8.383000 -7.707100 -5.283500 3.928529 -5.573282 1.577434 -85.777034 5.826067 21.349124 97.978237 -59.444357 -78.230136 -2.000780 -0.057449 9.493068 38.876665 -13.634150 -10.861000 -7.125000 0.000000 0.000000 9.114900 13.383300 -6.846600 -6.180236 6.820805 0.683465 74.381523 2.633867 12.187662 -58.387927 49.881006 -46.771640 2.837694 2.343573 -8.845051 -29.861000 -0.501507 1.643100 7.125000 0.000000 0.000000 -5.260500 -32.960200 -1.557400 
5.848232 17.539483 -8.229510 136.933877 -70.548451 -108.390143 -5.138632 -7.521101 -3.809374 3.118172 -4.655408 -36.848425 11.737811 19.104146 59.389042 2.336484 0.073439 32.741503 0.072100 -1.732400 -4.766800 2.573440 6.087036 -4.590754 13.502131 -10.786527 -54.506142 -11.978719 -18.836226 62.802706 -2.149133 0.373724 4.414735 -1.465400 7.650400 -21.657100 1.935920 -3.517035 42.231519 -0.231540 -4.554234 -3.423386 -1.930550 -2.462251 -12.752015 -10.920235 -12.297031 -2.063365 13.442861 -17.772649 -14.702261 8.432100 -7.723700 -5.222300 3.991012 -5.488531 1.538806 -85.686871 7.330748 20.948188 96.625300 -59.584404 -77.253774 -2.028829 -0.116788 8.465461 38.440971 -13.793057 -10.808500 -7.125000 0.000000 0.000000 8.824200 13.313400 -6.635900 -6.432761 6.711576 0.680226 76.025787 1.778407 12.504526 -61.889009 51.259126 -50.252643 2.838906 2.263065 -7.858013 -29.886842 0.239793 1.156400 7.125000 0.000000 0.000000 -5.208900 -32.072400 -1.654000 
5.590380 17.637141 -8.656620 138.128651 -70.289059 -109.604167 -5.195067 -7.924232 -4.170764 2.329432 -4.718084 -38.598658 11.970550 19.416162 60.901087 2.592493 -1.402284 30.732085 0.141300 -2.422600 -6.675000 3.101725 6.183433 -4.193371 14.498418 -11.329528 -53.132172 -11.231196 -18.454514 60.984889 -2.642102 1.269653 6.056693 -1.344600 7.341500 -20.731200 1.508843 -3.194075 40.956740 -0.239083 -4.336681 -3.476267 -1.962037 -2.382273 -12.630740 -10.825620 -12.360265 -2.180778 13.528188 -17.832662 -14.649961 8.474100 -7.744700 -5.139100 4.058379 -5.387456 1.494693 -85.605216 8.987321 20.627118 95.523598 -59.718301 -76.437465 -2.044468 -0.141565 7.801121 38.096964 -14.121866 -10.939400 -7.125000 0.000000 0.000000 8.553800 12.982900 -6.487800 -6.677266 6.593322 0.685581 77.702485 0.953252 12.895013 -65.315020 52.561056 -53.540945 2.859050 2.147451 -6.796114 -29.893977 1.018867 0.621100 7.125000 0.000000 0.000000 -5.145300 -31.095400 -1.754800 
